<?xml version="1.0" encoding="utf-8"?>
<!-- Generator: Adobe Illustrator 25.3.1, SVG Export Plug-In . SVG Version: 6.00 Build 0)  -->
<svg version="1.1" id="Слой_1" xmlns="http://www.w3.org/2000/svg" xmlns:xlink="http://www.w3.org/1999/xlink" x="0px" y="0px"
	 viewBox="0 0 113.39 113.39" style="enable-background:new 0 0 113.39 113.39;" xml:space="preserve">
<g>
	<path class="st0" d="M113.39,110.53V0h-6.19v0h-3.39v0H83.26c0,0,0,0,0,0h-3.39c0,0,0,0,0,0H59.32v0h-3.37v0H42.13c0,0,0,0,0,0
		H26.51c0,0,0,0,0,0H12.73H9.49H0v51.57v6.38v52.58v2.86v0h113.39L113.39,110.53L113.39,110.53z M84.43,16.31
		c0.09-3.23-0.03-6.57-0.35-9.99h20.58c1.65,16.56-1.68,30.51-9.96,40.64l0.01,0.14c-4.37,6.33-7.86,13.44-10.31,21.09l-7.95-10.39
		L96.1,31.52L84.43,16.31z M6.32,6.32h4.29c2,13.77,0.57,25.81-4.29,35.4V6.32z M6.32,74.84V47.97c7.44-10.99,9.73-25.41,7.49-41.65
		h13.71c2.25,17.66-0.98,32.5-9.67,43.13l0.01,0.14C12.7,57.06,8.75,65.6,6.32,74.84z M19.84,107.07
		c-0.46-3.49-0.73-7.04-0.73-10.67c0-17.59,5.56-33.76,14.82-46.46v-0.01c8.4-11.34,11.23-26.47,9.16-43.6h13.7
		c1.65,16.56-1.68,30.51-9.96,40.64l0.01,0.14c-8.97,13-14.31,29.22-14.31,46.81c0,4.49,0.38,8.88,1.05,13.16H19.84z M57.51,107.07
		h-20.5c0-0.02,0-0.04,0-0.06h-0.04c-0.69-4.26-1.08-8.63-1.08-13.1c0-17.59,5.56-33.76,14.82-46.46v-0.02
		c7.99-10.79,10.93-25.01,9.41-41.11h20.59c0.27,2.76,0.42,5.45,0.41,8.06L48.15,57.7l11.18,14.52c-1.83,6.89-2.86,14.15-2.86,21.69
		C56.47,98.39,56.84,102.78,57.51,107.07z M60.89,107.07c-0.01-0.08-0.01-0.17-0.01-0.25h0.06c-0.04-0.23-0.07-0.46-0.11-0.69
		c-0.01-0.16-0.02-0.32-0.03-0.48h-0.04c-0.67-4.14-1.05-8.4-1.05-12.76c0-6.16,0.73-12.13,2.04-17.84l18.24,23.7
		c0.19,2.62,0.46,5.21,0.89,7.75c0.02,0.19,0.02,0.38,0.03,0.57H60.89z M107.07,107.07H84.88c0-0.02,0-0.04,0-0.06h-0.04
		c-0.38-2.37-0.65-4.79-0.83-7.24l12.47-15.79l-9.53-12.47c2.54-8.85,6.49-17.01,11.64-24.07v-0.02c4.18-5.65,6.98-12.24,8.49-19.54
		V107.07z"/>
</g>
</svg>
