<?xml version="1.0" encoding="utf-8"?>
<!-- Generator: Adobe Illustrator 25.3.1, SVG Export Plug-In . SVG Version: 6.00 Build 0)  -->
<svg version="1.1" id="Capa_1" xmlns="http://www.w3.org/2000/svg" xmlns:xlink="http://www.w3.org/1999/xlink" x="0px" y="0px"
	 viewBox="0 0 512 512" style="enable-background:new 0 0 512 512;" xml:space="preserve">
<style type="text/css">
	.st0{fill:#FFFFFF;}
</style>
<g>
	<g>
		<path class="st0" d="M407,120c-8.28,0-15,6.72-15,15s6.72,15,15,15s15-6.72,15-15S415.28,120,407,120z"/>
	</g>
</g>
<g>
	<g>
		<path class="st0" d="M256,210c-8.28,0-15,6.72-15,15s6.72,15,15,15s15-6.72,15-15S264.28,210,256,210z"/>
	</g>
</g>
<g>
	<g>
		<path class="st0" d="M467,0H45C20.19,0,0,20.19,0,45v317h512V45C512,20.19,491.81,0,467,0z M120,177.24V316c0,8.29-6.71,15-15,15
			s-15-6.71-15-15V177.24c-17.42-6.21-30-22.71-30-42.24s12.58-36.02,30-42.24V75c0-8.29,6.71-15,15-15s15,6.71,15,15v17.76
			c17.42,6.21,30,22.71,30,42.24S137.42,171.02,120,177.24z M271,267.24V316c0,8.29-6.71,15-15,15c-8.29,0-15-6.71-15-15v-48.76
			c-17.42-6.21-30-22.71-30-42.24s12.58-36.02,30-42.24V75c0-8.29,6.71-15,15-15c8.29,0,15,6.71,15,15v107.76
			c17.42,6.21,30,22.71,30,42.24S288.42,261.02,271,267.24z M422,177.24V316c0,8.29-6.71,15-15,15c-8.29,0-15-6.71-15-15V177.24
			c-17.42-6.21-30-22.71-30-42.24s12.58-36.02,30-42.24V75c0-8.29,6.71-15,15-15c8.29,0,15,6.71,15,15v17.76
			c17.42,6.21,30,22.71,30,42.24S439.42,171.02,422,177.24z"/>
	</g>
</g>
<g>
	<g>
		<path class="st0" d="M105,120c-8.28,0-15,6.72-15,15s6.72,15,15,15s15-6.72,15-15S113.28,120,105,120z"/>
	</g>
</g>
<g>
	<g>
		<path class="st0" d="M0,392v75c0,24.81,20.19,45,45,45h422c24.81,0,45-20.19,45-45v-75H0z M105,452H75c-8.29,0-15-6.71-15-15
			c0-8.29,6.71-15,15-15h30c8.29,0,15,6.71,15,15S113.29,452,105,452z M196,452h-31c-8.29,0-15-6.71-15-15c0-8.29,6.71-15,15-15h31
			c8.29,0,15,6.71,15,15S204.29,452,196,452z M286,452h-30c-8.29,0-15-6.71-15-15c0-8.29,6.71-15,15-15h30c8.29,0,15,6.71,15,15
			S294.29,452,286,452z M376.97,452c-8.28,0-15-6.72-15-15c0-8.29,6.72-15,15-15c8.29,0,15,6.71,15,15
			C391.97,445.28,385.26,452,376.97,452z M436.97,452c-8.28,0-15-6.72-15-15c0-8.29,6.72-15,15-15c8.29,0,15,6.71,15,15
			C451.97,445.28,445.26,452,436.97,452z"/>
	</g>
</g>
</svg>
