<?xml version="1.0" encoding="utf-8"?>
<!-- Generator: Adobe Illustrator 25.3.1, SVG Export Plug-In . SVG Version: 6.00 Build 0)  -->
<svg version="1.1" id="Capa_1" xmlns="http://www.w3.org/2000/svg" xmlns:xlink="http://www.w3.org/1999/xlink" x="0px" y="0px"
	 viewBox="0 0 60 60" style="enable-background:new 0 0 60 60;" xml:space="preserve">
<style type="text/css">
	.st0{fill:#FFFFFF;}
</style>
<path class="st0" d="M30,1.5c-16.54,0-30,12.11-30,27c0,5.2,1.65,10.24,4.77,14.6c-0.59,6.54-2.17,11.39-4.47,13.69
	c-0.3,0.3-0.38,0.77-0.19,1.15C0.28,58.29,0.62,58.5,1,58.5c0.05,0,0.09,0,0.14-0.01c0.4-0.06,9.81-1.41,16.62-5.34
	c3.86,1.56,7.98,2.35,12.24,2.35c16.54,0,30-12.11,30-27S46.54,1.5,30,1.5z M16,32.5c-2.21,0-4-1.79-4-4s1.79-4,4-4s4,1.79,4,4
	S18.21,32.5,16,32.5z M30,32.5c-2.21,0-4-1.79-4-4s1.79-4,4-4s4,1.79,4,4S32.21,32.5,30,32.5z M44,32.5c-2.21,0-4-1.79-4-4
	s1.79-4,4-4s4,1.79,4,4S46.21,32.5,44,32.5z"/>
</svg>
