<?xml version="1.0" encoding="utf-8"?>
<!-- Generator: Adobe Illustrator 25.3.1, SVG Export Plug-In . SVG Version: 6.00 Build 0)  -->
<svg version="1.1" id="Слой_1" xmlns="http://www.w3.org/2000/svg" xmlns:xlink="http://www.w3.org/1999/xlink" x="0px" y="0px"
	 viewBox="0 0 682.67 682.67" style="enable-background:new 0 0 682.67 682.67;" xml:space="preserve">
<style type="text/css">
	.st0{fill:#FFFFFF;}
</style>
<path class="st0" d="M567.27,114.73C506.84,54.29,426.47,21,341,21s-165.84,33.29-226.27,93.73C54.29,175.16,21,255.53,21,341
	s33.29,165.84,93.73,226.27C175.16,627.71,255.53,661,341,661s165.84-33.29,226.27-93.73C627.71,506.84,661,426.47,661,341
	S627.71,175.16,567.27,114.73z M341,599.28C198.59,599.28,82.72,483.41,82.72,341S198.59,82.72,341,82.72S599.28,198.59,599.28,341
	S483.41,599.28,341,599.28z M499.93,341c0-10.35,8.4-18.75,18.75-18.75h42.3c-3.95-46.79-22.55-89.46-51.19-123.4l-29.77,29.77
	c-7.33,7.31-19.2,7.31-26.53,0c-7.31-7.33-7.31-19.2,0-26.53l29.79-29.79c-33.96-28.69-76.69-47.34-123.52-51.29v42.3
	c0,10.35-8.4,18.75-18.75,18.75s-18.75-8.4-18.75-18.75v-42.3c-46.79,3.95-89.45,22.55-123.4,51.19l29.89,29.89
	c7.32,7.32,7.32,19.2,0,26.53c-3.66,3.65-8.46,5.48-13.27,5.48c-4.8,0-9.6-1.82-13.25-5.48l-29.9-29.9
	c-28.7,33.96-47.35,76.69-51.3,123.52h42.3c10.35,0,18.75,8.4,18.75,18.75s-8.4,18.75-18.75,18.75h-42.3
	c3.95,46.84,22.6,89.56,51.3,123.52l29.9-29.9c7.31-7.33,19.18-7.33,26.51,0c7.32,7.33,7.32,19.2,0,26.53l-29.89,29.89
	c33.95,28.64,76.61,47.23,123.4,51.19v-42.3c0-10.35,8.4-18.75,18.75-18.75s18.75,8.4,18.75,18.75v42.3
	c46.84-3.95,89.56-22.6,123.52-51.3L453.5,479.9c-7.32-7.32-7.32-19.2,0-26.53c7.31-7.33,19.19-7.31,26.52,0l29.77,29.77
	c28.64-33.95,47.23-76.61,51.19-123.4h-42.3C508.32,359.75,499.93,351.35,499.93,341z M402.1,401.95
	c-3.66,3.67-8.46,5.51-13.27,5.51c-4.79,0-9.58-1.82-13.24-5.48l-47.38-47.26c-3.85-3.84-5.96-8.94-5.96-14.37V226.81
	c0-10.35,8.4-18.75,18.75-18.75s18.75,8.4,18.75,18.75v106.41l42.32,42.21C409.4,382.75,409.41,394.62,402.1,401.95z"/>
</svg>
