<svg height="512pt" viewBox="0 -31 512 512" width="512pt" xmlns="http://www.w3.org/2000/svg"><path d="m496.925781 49.296875h-414.074219c-8.324218 0-15.074218 6.75-15.074218 15.074219v155.648437c11.058594-3 22.679687-4.609375 34.675781-4.609375 73.113281 0 132.601563 59.488282 132.601563 132.601563 0 16.746093-3.128907 32.777343-8.820313 47.542969h270.691406c8.324219 0 15.074219-6.75 15.074219-15.078126v-316.105468c0-8.324219-6.75-15.074219-15.074219-15.074219zm-63.316406 283.996094h-103.519531c-8.324219 0-15.074219-6.75-15.074219-15.078125 0-8.324219 6.75-15.074219 15.074219-15.074219h103.519531c8.324219 0 15.074219 6.75 15.074219 15.074219 0 8.328125-6.75 15.078125-15.074219 15.078125zm0 0"/><path d="m283.578125 12.0625c-1.429687-7.019531-7.605469-12.0625-14.769531-12.0625h-147.601563c-7.167969 0-13.339843 5.042969-14.773437 12.0625l-1.445313 7.085938h180.035157zm0 0"/><path d="m102.453125 245.5625c-56.496094 0-102.453125 45.957031-102.453125 102.449219 0 56.492187 45.957031 102.453125 102.453125 102.453125 56.492187 0 102.449219-45.960938 102.449219-102.453125 0-56.492188-45.960938-102.449219-102.449219-102.449219zm25.84375 155.460938c-7.019531 0-9.164063-3.835938-9.816406-6.121094l-4.019531-14.773438h-24.019532l-4.007812 14.738282c-.664063 2.324218-2.808594 6.15625-9.828125 6.15625-6.925781 0-16.582031-4.449219-16.582031-11.699219 0-.78125.191406-1.546875.359374-2.222657l.042969-.148437 25.234375-82.761719c1.757813-5.589844 8.320313-9.191406 16.722656-9.191406 8.402344 0 14.964844 3.597656 16.714844 9.167969l25.417969 82.933593c.171875.675782.363281 1.441407.363281 2.222657 0 7.25-9.65625 11.699219-16.582031 11.699219zm0 0"/><path d="m102.382812 335.945312-5.957031 21.875h11.917969zm0 0"/></svg>