<svg id="Capa_1" enable-background="new 0 0 512 512" height="512" viewBox="0 0 512 512" width="512" xmlns="http://www.w3.org/2000/svg"><g><path d="m450.891 482v-60h-47.208l-87.798-297.989h22.183v-30h-29.026v-58.245h-38.042v-35.766h-30v35.766h-37.381v58.245h-29.687v30h22.794l-88.387 297.989h-47.23v60h-61.109v30h512v-30zm-151.07-180.799-44.23 30.991-44.502-30.991zm39.61 8.877 29.841 101.281-87.461-60.908zm-59.518-38.877 29.863-61.77 18.2 61.77zm-23.913-19.463-32.743-67.727h65.486zm-23.913 19.463h-47.727l18.147-61.183zm-2.663 79.326-86.589 60.672 29.739-100.262zm11.576 28.52v42.953h-61.301zm30 .433 61.056 42.52h-61.056zm-37.381-313.714h45.422v28.245h-45.422zm50.99 58.245 8.839 30h-74.328l8.898-30zm-193.5 357.989v-30h329.781v30z"/></g></svg>