<?xml version="1.0" encoding="utf-8"?>
<!-- Generator: Adobe Illustrator 25.3.1, SVG Export Plug-In . SVG Version: 6.00 Build 0)  -->
<svg version="1.1" id="Capa_1" xmlns="http://www.w3.org/2000/svg" xmlns:xlink="http://www.w3.org/1999/xlink" x="0px" y="0px"
	 viewBox="0 0 512 512" style="enable-background:new 0 0 512 512;" xml:space="preserve">
<style type="text/css">
	.st0{fill:#FFFFFF;}
</style>
<g>
	<g>
		<path class="st0" d="M436,0c-24.81,0-45,20.19-45,45c0,10.06,3.44,19.27,9.04,26.78l-73.39,79.64c-3.43-0.84-6.96-1.41-10.65-1.41
			c-9.21,0-17.77,2.8-24.91,7.57l-52.33-39.24c1.33-4.24,2.24-8.66,2.24-13.33c0-24.81-20.19-45-45-45s-45,20.19-45,45
			c0,4.67,0.92,9.09,2.24,13.33l-52.33,39.24C93.77,152.8,85.21,150,76,150c-24.81,0-45,20.19-45,45s20.19,45,45,45s45-20.19,45-45
			c0-4.67-0.92-9.09-2.25-13.33l52.33-39.24c7.14,4.77,15.7,7.57,24.91,7.57s17.77-2.8,24.91-7.57l52.33,39.24
			c-1.33,4.24-2.24,8.66-2.24,13.33c0,24.81,20.19,45,45,45s45-20.19,45-45c0-10.07-3.44-19.27-9.04-26.78l73.39-79.64
			C428.78,89.43,432.31,90,436,90c24.81,0,45-20.19,45-45S460.81,0,436,0z"/>
	</g>
</g>
<g>
	<g>
		<path class="st0" d="M226,240h-60c-8.29,0-15,6.71-15,15v197h90V255C241,246.71,234.29,240,226,240z"/>
	</g>
</g>
<g>
	<g>
		<path class="st0" d="M346,300h-60c-8.29,0-15,6.71-15,15v137h90V315C361,306.71,354.29,300,346,300z"/>
	</g>
</g>
<g>
	<g>
		<path class="st0" d="M466,180h-60c-8.29,0-15,6.71-15,15v257h90V195C481,186.71,474.29,180,466,180z"/>
	</g>
</g>
<g>
	<g>
		<path class="st0" d="M106,330H46c-8.29,0-15,6.71-15,15v107h90V345C121,336.71,114.29,330,106,330z"/>
	</g>
</g>
<g>
	<g>
		<path class="st0" d="M497,482c-66.98,0-97.73,0-109.87,0c-5.55,0-7.53,0-7.52,0c-22.1,0-104.37,0-364.61,0c-8.29,0-15,6.71-15,15
			c0,8.29,6.71,15,15,15c181.52,0,312.43,0,482,0c8.29,0,15-6.71,15-15S505.29,482,497,482z"/>
	</g>
</g>
</svg>
